<?xml version="1.0" encoding="utf-8"?>
<!-- Generator: Adobe Illustrator 23.0.1, SVG Export Plug-In . SVG Version: 6.00 Build 0)  -->
<svg version="1.1" id="Layer_1" xmlns="http://www.w3.org/2000/svg" xmlns:xlink="http://www.w3.org/1999/xlink" x="0px" y="0px"
	 viewBox="0 0 228.5 128" style="enable-background:new 0 0 228.5 128;" xml:space="preserve">
<g>
	<linearGradient id="SVGID_1_" gradientUnits="userSpaceOnUse" x1="95.2247" y1="39.5926" x2="95.8917" y2="80.2585">
		<stop  offset="0" style="stop-color:#47A6DD"/>
		<stop  offset="0.2176" style="stop-color:#398ABD"/>
		<stop  offset="0.5796" style="stop-color:#1E6999"/>
		<stop  offset="0.8515" style="stop-color:#035787"/>
		<stop  offset="1" style="stop-color:#005181"/>
	</linearGradient>
	<path style="fill:url(#SVGID_1_);" d="M138.36,42.05c-0.62,0.51-1.23,1.01-1.83,1.53c-1.44,1.27-2.86,2.52-4.25,3.75
		c-1.42,1.21-2.72,2.5-4.03,3.72c-1.3,1.23-2.59,2.42-3.81,3.61c-1.02,1.05-2.01,2.06-2.98,3.05c0,0-2.63,2.69-3.72,3.83
		c-1.5,1.63-2.91,3.16-4.21,4.57c5.6-19.77,13.75-33.21,13.75-33.21l-7.5-5.17c-14.5,28.33-18.5,64.67-18.5,64.67
		c-8.33-25.33,12.04-62.71,12.04-62.71l-7.25-4.38c-2,4.37-3.7,8.71-5.16,12.94l-0.01,0C90.23,64.2,78.57,80.07,75.32,79.57
		c-6.5-1.63,3.88-48.37,3.88-48.37l-6.92-5.46c-6.77,31.72-14.5,51.4-21.45,63.12l2.6-1.04L53.2,92
		c8.53-13.97,13.25-32.85,13.25-32.85c-2.33,11.75-0.08,24.33,9.33,24.08c6.96-0.51,15.94-17.64,19.86-25.85
		c-3.46,16.44-3.31,28.18-3.31,28.18l16.13,19.88c-0.46-11.86,1.11-23.2,3.5-33.26c0.74-0.85,1.55-1.76,2.45-2.72
		c1.54-1.65,3.26-3.5,5.13-5.5c1.22,3.87,4.69,14.57,7.86,21.15c0.29,0.64,0.59,1.29,0.92,1.93c1.98,3.93,4.47,7.94,7.58,11.56
		l-1.12-6.2h5.26c-0.38-0.57-0.74-1.15-1.1-1.74c-1.38-2.27-2.56-4.62-3.61-6.95c-1.04-2.33-1.97-4.64-2.83-6.85
		c-0.84-2.21-1.64-4.32-2.26-6.32c-0.65-1.99-1.19-3.84-1.61-5.49c-0.3-1.21-0.67-2.29-0.99-3.25c-0.37-2.11-0.43-4.54,0.5-6.5
		c0.72-0.7,1.44-1.38,2.18-2.1c1.28-1.22,2.56-2.5,3.95-3.71c1.37-1.23,2.76-2.48,4.17-3.74c0.68-0.6,1.38-1.19,2.09-1.77h-2.38
		L138.36,42.05z"/>
	<linearGradient id="SVGID_2_" gradientUnits="userSpaceOnUse" x1="59.3619" y1="82.9672" x2="7.5295" y2="111.8002">
		<stop  offset="0" style="stop-color:#ED1C24"/>
		<stop  offset="0.2109" style="stop-color:#BE141B"/>
		<stop  offset="0.4938" style="stop-color:#880103"/>
		<stop  offset="0.729" style="stop-color:#620000"/>
		<stop  offset="0.9043" style="stop-color:#470000"/>
		<stop  offset="1" style="stop-color:#3B0000"/>
	</linearGradient>
	<path style="fill:url(#SVGID_2_);" d="M49.96,90.28c-6.21,9.98-11.73,13.63-15.26,13.92c-7.63,0.63-16.19-10.31-16.19-10.31
		c1.88,3.5,7.94,11.81,14.5,12.75c7.52,0.83,13.95-5.03,19.1-12.89l0.24-4.41L49.96,90.28z"/>
	<linearGradient id="SVGID_3_" gradientUnits="userSpaceOnUse" x1="135.958" y1="102.1721" x2="181.1924" y2="102.1721">
		<stop  offset="0" style="stop-color:#ED1C24"/>
		<stop  offset="0.2109" style="stop-color:#BE141B"/>
		<stop  offset="0.4938" style="stop-color:#880103"/>
		<stop  offset="0.729" style="stop-color:#620000"/>
		<stop  offset="0.9043" style="stop-color:#470000"/>
		<stop  offset="1" style="stop-color:#3B0000"/>
	</linearGradient>
	<path style="fill:url(#SVGID_3_);" d="M137.16,100.04c0.53,0.57,1.08,1.12,1.64,1.66c2.27,2.14,4.72,4.13,7.45,5.64
		c2.7,1.54,5.6,2.67,8.57,3.26c0.39,0.06,0.79,0.13,1.18,0.19l1.01,0.1c0.88,0.07,1.59,0.06,2.36,0.02c1.5-0.11,2.89-0.42,4.19-0.82
		c2.59-0.8,4.78-1.96,6.7-3.14c1.9-1.19,3.56-2.38,4.93-3.54c1.38-1.15,2.53-2.2,3.45-3.1c1.82-1.8,2.57-3.12,2.57-3.12
		c0,0-0.46,0.04-1,0.44c-0.54,0.4-1.34,0.99-2.38,1.69c-1.04,0.7-2.3,1.55-3.8,2.42c-1.5,0.87-3.19,1.83-5.11,2.68
		c-1.91,0.84-4.03,1.62-6.26,2.02c-1.11,0.2-2.25,0.29-3.36,0.23c-0.27-0.03-0.55-0.04-0.82-0.08c-0.25-0.04-0.59-0.09-0.76-0.13
		l-0.97-0.22l-0.8-0.24c-2.29-0.75-4.55-1.94-6.62-3.48c-2.08-1.53-4.02-3.36-5.76-5.37c-1.02-1.2-1.96-2.46-2.86-3.76h-4.74
		L137.16,100.04z"/>
	<linearGradient id="SVGID_4_" gradientUnits="userSpaceOnUse" x1="140.3932" y1="50.5063" x2="205.3931" y2="16.8399">
		<stop  offset="0" style="stop-color:#ED1C24"/>
		<stop  offset="0.2109" style="stop-color:#BE141B"/>
		<stop  offset="0.4938" style="stop-color:#880103"/>
		<stop  offset="0.729" style="stop-color:#620000"/>
		<stop  offset="0.9043" style="stop-color:#470000"/>
		<stop  offset="1" style="stop-color:#3B0000"/>
	</linearGradient>
	<path style="fill:url(#SVGID_4_);" d="M207.15,27.91c-0.57-0.74-1.47-1.8-2.78-2.98c-1.31-1.18-3.04-2.46-5.22-3.62
		c-2.17-1.17-4.83-2.12-7.83-2.67c-3-0.58-6.33-0.64-9.78-0.09c-1.78,0.2-3.47,0.72-5.25,1.13c-0.86,0.28-1.73,0.57-2.61,0.85
		c-0.44,0.14-0.88,0.29-1.33,0.44c-0.43,0.17-0.87,0.35-1.3,0.52c-0.87,0.35-1.75,0.71-2.63,1.07c-0.88,0.37-1.73,0.81-2.6,1.22
		c-0.86,0.43-1.76,0.82-2.61,1.28c-0.85,0.47-1.71,0.94-2.57,1.41c-1.75,0.91-3.41,1.98-5.1,3.02c-1.71,1.01-3.33,2.17-4.98,3.28
		c-0.82,0.57-1.66,1.11-2.46,1.7l-2.39,1.78c-1.59,1.18-3.19,2.35-4.68,3.62c-0.51,0.42-1.02,0.84-1.53,1.25l-0.23,1.86h2.45
		c0.37-0.3,0.73-0.61,1.1-0.91c1.46-1.26,3-2.45,4.54-3.64l2.31-1.8c0.78-0.59,1.59-1.14,2.38-1.71c1.6-1.13,3.17-2.3,4.83-3.32
		c1.64-1.05,3.25-2.14,4.93-3.06c0.83-0.48,1.66-0.96,2.49-1.43c0.83-0.47,1.69-0.86,2.52-1.3c0.84-0.41,1.67-0.86,2.51-1.24
		c0.85-0.36,1.69-0.73,2.53-1.09c0.42-0.18,0.84-0.36,1.25-0.54c0.42-0.15,0.85-0.3,1.27-0.44c0.84-0.29,1.68-0.58,2.5-0.87
		c1.68-0.42,3.33-0.96,4.93-1.17c3.23-0.58,6.42-0.61,9.25-0.17c2.85,0.42,5.37,1.27,7.5,2.23c2.14,0.97,3.85,2.12,5.2,3.15
		c1.35,1.03,2.43,1.82,3.04,2.48c0.63,0.67,0.99,1.07,0.99,1.07S207.72,28.66,207.15,27.91z"/>
</g>
</svg>
